HIERARCHY
ROOT Hips
{
	OFFSET 0 0 0
	CHANNELS 6 Xposition Yposition Zposition Yrotation Xrotation Zrotation
	JOINT Spine
	{
		OFFSET -0 8.07728 -2.57463
		CHANNELS 3 Yrotation Xrotation Zrotation
		JOINT Spine1
		{
			OFFSET -0 7.85748 0
			CHANNELS 3 Yrotation Xrotation Zrotation
			JOINT Spine2
			{
				OFFSET -0 7.85748 0
				CHANNELS 3 Yrotation Xrotation Zrotation
				JOINT Spine3
				{
					OFFSET -0 7.85748 0
					CHANNELS 3 Yrotation Xrotation Zrotation
					JOINT Neck
					{
						OFFSET -0 14.0969 3.57463
						CHANNELS 3 Yrotation Xrotation Zrotation
						JOINT Head
						{
							OFFSET -0 10.0966 0
							CHANNELS 3 Yrotation Xrotation Zrotation
							End Site
							{
								OFFSET 0 15 0
							}
						}
					}
					JOINT LeftShoulder
					{
						OFFSET 1.68277 2.40696 3.36553
						CHANNELS 3 Yrotation Xrotation Zrotation
						JOINT LeftArm
						{
							OFFSET 18.0611 0 0
							CHANNELS 3 Yrotation Xrotation Zrotation
							JOINT LeftForeArm
							{
								OFFSET 22.6236 0 0
								CHANNELS 3 Yrotation Xrotation Zrotation
								JOINT LeftHand
								{
									OFFSET 24.2874 0 0
									CHANNELS 3 Yrotation Xrotation Zrotation
									JOINT LeftHandThumb1
									{
										OFFSET 4.73728 0 2.48881
										CHANNELS 3 Yrotation Xrotation Zrotation
										JOINT LeftHandThumb2
										{
											OFFSET 3 0 1
											CHANNELS 3 Yrotation Xrotation Zrotation
											JOINT LeftHandThumb3
											{
												OFFSET 2.1 0 0
												CHANNELS 3 Yrotation Xrotation Zrotation
												JOINT LeftHandThumb4
												{
													OFFSET 1.305 0 0
													CHANNELS 3 Yrotation Xrotation Zrotation
													End Site
													{
														OFFSET -0 0 0
													}
												}
											}
										}
									}
									JOINT LeftHandIndex1
									{
										OFFSET 8.45149 0 3.3332
										CHANNELS 3 Yrotation Xrotation Zrotation
										JOINT LeftHandIndex2
										{
											OFFSET 3.5 0 0
											CHANNELS 3 Yrotation Xrotation Zrotation
											JOINT LeftHandIndex3
											{
												OFFSET 2.45 0 0
												CHANNELS 3 Yrotation Xrotation Zrotation
												JOINT LeftHandIndex4
												{
													OFFSET 1.5225 0 0
													CHANNELS 3 Yrotation Xrotation Zrotation
													End Site
													{
														OFFSET -0 0 0
													}
												}
											}
										}
									}
									JOINT LeftHandMiddle1
									{
										OFFSET 8.76388 0 0.837268
										CHANNELS 3 Yrotation Xrotation Zrotation
										JOINT LeftHandMiddle2
										{
											OFFSET 4.6 0 0
											CHANNELS 3 Yrotation Xrotation Zrotation
											JOINT LeftHandMiddle3
											{
												OFFSET 3.22 0 0
												CHANNELS 3 Yrotation Xrotation Zrotation
												JOINT LeftHandMiddle4
												{
													OFFSET 2.001 0 0
													CHANNELS 3 Yrotation Xrotation Zrotation
													End Site
													{
														OFFSET -0 0 0
													}
												}
											}
										}
									}
									JOINT LeftHandRing1
									{
										OFFSET 8.77626 0 -1.65867
										CHANNELS 3 Yrotation Xrotation Zrotation
										JOINT LeftHandRing2
										{
											OFFSET 3.75 0 0
											CHANNELS 3 Yrotation Xrotation Zrotation
											JOINT LeftHandRing3
											{
												OFFSET 2.625 0 0
												CHANNELS 3 Yrotation Xrotation Zrotation
												JOINT LeftHandRing4
												{
													OFFSET 1.63125 0 0
													CHANNELS 3 Yrotation Xrotation Zrotation
													End Site
													{
														OFFSET -0 0 0
													}
												}
											}
										}
									}
									JOINT LeftHandPinky1
									{
										OFFSET 8.48864 0 -4.1546
										CHANNELS 3 Yrotation Xrotation Zrotation
										JOINT LeftHandPinky2
										{
											OFFSET 2.875 0 0
											CHANNELS 3 Yrotation Xrotation Zrotation
											JOINT LeftHandPinky3
											{
												OFFSET 2.0125 0 0
												CHANNELS 3 Yrotation Xrotation Zrotation
												JOINT LeftHandPinky4
												{
													OFFSET 1.25062 0 0
													CHANNELS 3 Yrotation Xrotation Zrotation
													End Site
													{
														OFFSET -0 0 0
													}
												}
											}
										}
									}
								}
							}
						}
					}
					JOINT RightShoulder
					{
						OFFSET -1.68277 2.40696 3.36553
						CHANNELS 3 Yrotation Xrotation Zrotation
						JOINT RightArm
						{
							OFFSET -18.0611 0 0
							CHANNELS 3 Yrotation Xrotation Zrotation
							JOINT RightForeArm
							{
								OFFSET -22.6236 0 0
								CHANNELS 3 Yrotation Xrotation Zrotation
								JOINT RightHand
								{
									OFFSET -24.2874 0 0
									CHANNELS 3 Yrotation Xrotation Zrotation
									JOINT RightHandThumb1
									{
										OFFSET -4.51754 0 2.6169
										CHANNELS 3 Yrotation Xrotation Zrotation
										JOINT RightHandThumb2
										{
											OFFSET -3 0 1
											CHANNELS 3 Yrotation Xrotation Zrotation
											JOINT RightHandThumb3
											{
												OFFSET -2.1 0 0
												CHANNELS 3 Yrotation Xrotation Zrotation
												JOINT RightHandThumb4
												{
													OFFSET -1.305 0 0
													CHANNELS 3 Yrotation Xrotation Zrotation
													End Site
													{
														OFFSET -0 0 0
													}
												}
											}
										}
									}
									JOINT RightHandIndex1
									{
										OFFSET -8.60414 0 3.42357
										CHANNELS 3 Yrotation Xrotation Zrotation
										JOINT RightHandIndex2
										{
											OFFSET -3.5 0 0
											CHANNELS 3 Yrotation Xrotation Zrotation
											JOINT RightHandIndex3
											{
												OFFSET -2.45 0 0
												CHANNELS 3 Yrotation Xrotation Zrotation
												JOINT RightHandIndex4
												{
													OFFSET -1.5225 0 0
													CHANNELS 3 Yrotation Xrotation Zrotation
													End Site
													{
														OFFSET -0 0 0
													}
												}
											}
										}
									}
									JOINT RightHandMiddle1
									{
										OFFSET -8.52211 0 1.19563
										CHANNELS 3 Yrotation Xrotation Zrotation
										JOINT RightHandMiddle2
										{
											OFFSET -4.6 0 0
											CHANNELS 3 Yrotation Xrotation Zrotation
											JOINT RightHandMiddle3
											{
												OFFSET -3.22 0 0
												CHANNELS 3 Yrotation Xrotation Zrotation
												JOINT RightHandMiddle4
												{
													OFFSET -2.001 0 0
													CHANNELS 3 Yrotation Xrotation Zrotation
													End Site
													{
														OFFSET -0 0 0
													}
												}
											}
										}
									}
									JOINT RightHandRing1
									{
										OFFSET -8.14008 0 -1.0323
										CHANNELS 3 Yrotation Xrotation Zrotation
										JOINT RightHandRing2
										{
											OFFSET -3.75 0 0
											CHANNELS 3 Yrotation Xrotation Zrotation
											JOINT RightHandRing3
											{
												OFFSET -2.625 0 0
												CHANNELS 3 Yrotation Xrotation Zrotation
												JOINT RightHandRing4
												{
													OFFSET -1.63125 0 0
													CHANNELS 3 Yrotation Xrotation Zrotation
													End Site
													{
														OFFSET -0 0 0
													}
												}
											}
										}
									}
									JOINT RightHandPinky1
									{
										OFFSET -7.45805 0 -3.26023
										CHANNELS 3 Yrotation Xrotation Zrotation
										JOINT RightHandPinky2
										{
											OFFSET -2.875 0 0
											CHANNELS 3 Yrotation Xrotation Zrotation
											JOINT RightHandPinky3
											{
												OFFSET -2.0125 0 0
												CHANNELS 3 Yrotation Xrotation Zrotation
												JOINT RightHandPinky4
												{
													OFFSET -1.25062 0 0
													CHANNELS 3 Yrotation Xrotation Zrotation
													End Site
													{
														OFFSET -0 0 0
													}
												}
											}
										}
									}
								}
							}
						}
					}
				}
			}
		}
	}
	JOINT LeftUpLeg
	{
		OFFSET 10.0966 -3.36553 3
		CHANNELS 3 Yrotation Xrotation Zrotation
		JOINT LeftLeg
		{
			OFFSET -0 -44.1253 2.35587
			CHANNELS 3 Yrotation Xrotation Zrotation
			JOINT LeftFoot
			{
				OFFSET -0 -37.5861 -2.35587
				CHANNELS 3 Yrotation Xrotation Zrotation
				JOINT LeftToeBase
				{
					OFFSET -0 -9.60866 9.35537
					CHANNELS 3 Yrotation Xrotation Zrotation
					End Site
					{
						OFFSET 0 0 5
					}
				}
			}
		}
	}
	JOINT RightUpLeg
	{
		OFFSET -10.0966 -3.36553 3
		CHANNELS 3 Yrotation Xrotation Zrotation
		JOINT RightLeg
		{
			OFFSET -0 -44.1253 2.35587
			CHANNELS 3 Yrotation Xrotation Zrotation
			JOINT RightFoot
			{
				OFFSET -0 -37.5861 -2.35587
				CHANNELS 3 Yrotation Xrotation Zrotation
				JOINT RightToeBase
				{
					OFFSET -0 -9.60866 9.35537
					CHANNELS 3 Yrotation Xrotation Zrotation
					End Site
					{
						OFFSET 0 0 5
					}
				}
			}
		}
	}
}
MOTION
Frames: 5
Frame Time: 0.0047619
42.577402 93.906000 -107.223950 -24.922572 18.500216 6.561052 6.015118 0.863516 3.648837 4.959125 0.586525 2.347358 1.169624 0.409441 0.920109 -0.102719 0.181881 -0.031239 37.735214 16.698900 -19.638460 17.211309 -7.623182 1.040495 21.381786 5.812726 0.495665 -28.613029 20.953364 -29.597148 -66.144878 -10.267126 -14.776927 72.874793 -49.316506 -61.001300 -54.916003 13.456493 10.390539 -63.207241 16.086045 10.677267 15.998419 -4.468588 8.895245 0.000004 0.000001 12.500008 0.000004 0.000001 12.500008 -0.000003 -0.000002 9.999992 -0.000006 0.000003 5.000002 0.000004 0.000001 12.500008 0.000004 0.000001 12.500008 -0.000003 -0.000002 9.999992 -0.000006 0.000003 5.000002 0.000004 0.000001 12.500008 0.000004 0.000001 12.500008 -0.000003 -0.000002 9.999992 -0.000006 0.000003 5.000002 0.000004 0.000001 12.500008 0.000004 0.000001 12.500008 -0.000003 -0.000002 9.999992 -0.000006 0.000003 5.000002 -175.083215 -0.002578 -179.939952 0.557583 1.600459 -19.991828 0.937118 -5.259109 -1.149263 62.468959 -25.691986 -8.921221 -89.468576 -15.099389 13.383339 10.499699 -12.989919 -6.181220 12.241436 -14.830160 -7.342632 5.531234 -23.603551 -12.142261 -0.000017 0.000024 19.492918 -0.000017 0.000024 19.492918 -0.000012 0.000020 15.594340 -0.000006 0.000005 7.797170 -0.000011 0.000038 29.582123 -0.000011 0.000038 29.582123 -0.000022 0.000016 23.665705 -0.000014 0.000007 11.832847 0.000000 -0.000003 -12.500004 0.000000 -0.000003 -12.500004 0.000004 0.000010 -9.999996 -0.000001 -0.000003 -5.000002 -0.000028 0.000049 16.143057 -0.000028 0.000049 16.143057 -0.000037 0.000034 12.914455 -0.000018 0.000004 6.457223 -54.916003 13.456493 10.390539 15.140517 -13.250833 -23.758714 0.000000 -2.171744 0.000000 8.903889 3.706390 6.637035 0.000000 -8.255725 0.000000 162.121427 -62.289673 168.393420 180.000000 68.287633 180.000000 -42.726869 -14.151718 -3.795370 0.000000 -17.475717 0.000000
42.552286 93.906879 -107.169592 -24.823206 18.457586 6.585756 5.985121 0.877615 3.667000 4.939627 0.577704 2.348980 1.156714 0.407455 0.937065 -0.114101 0.191400 -0.012342 37.729777 16.693153 -19.703932 17.221305 -7.585692 1.072809 21.365702 5.738618 0.468407 -28.674263 21.123334 -29.698305 -66.249908 -10.153466 -14.749306 72.947477 -49.411562 -61.189691 -54.902426 13.386896 10.350335 -63.190484 16.004020 10.637742 15.962591 -4.421747 8.797573 0.000007 -0.000002 12.499996 0.000007 -0.000002 12.499996 -0.000008 -0.000001 9.999999 0.000006 0.000003 5.000005 0.000007 -0.000002 12.499996 0.000007 -0.000002 12.499996 -0.000008 -0.000001 9.999999 0.000006 0.000003 5.000005 0.000007 -0.000002 12.499996 0.000007 -0.000002 12.499996 -0.000008 -0.000001 9.999999 0.000006 0.000003 5.000005 0.000007 -0.000002 12.499996 0.000007 -0.000002 12.499996 -0.000008 -0.000001 9.999999 0.000006 0.000003 5.000005 -175.083225 -0.002578 -179.939952 0.552681 1.557750 -20.041360 0.912970 -5.169657 -1.196379 62.501587 -25.864453 -8.939826 -89.388099 -15.079697 13.251624 10.516060 -12.987933 -6.172588 12.260124 -14.827830 -7.332935 5.504722 -23.639613 -12.152013 -0.000004 0.000015 19.545572 -0.000004 0.000015 19.545572 -0.000005 0.000008 15.636482 -0.000002 0.000000 7.818217 -0.000002 0.000018 29.635149 -0.000002 0.000018 29.635149 -0.000014 0.000008 23.708133 -0.000003 0.000004 11.854058 0.000003 0.000004 -12.500004 0.000003 0.000004 -12.500004 0.000003 -0.000003 -10.000007 -0.000007 0.000001 -5.000001 -0.000012 0.000015 16.172522 -0.000012 0.000015 16.172522 -0.000009 0.000012 12.938027 -0.000002 0.000015 6.469014 -54.902426 13.386896 10.350335 15.064044 -13.177958 -23.762635 0.000000 -2.220907 0.000000 8.896578 3.817747 6.760536 0.000000 -8.113941 0.000000 162.002283 -62.260738 168.421369 180.000000 68.255377 180.000000 -42.739150 -14.154265 -3.797208 0.000000 -17.467156 0.000000
42.526324 93.908557 -107.116663 -24.706963 18.426931 6.600313 5.955499 0.872950 3.686217 4.914822 0.567568 2.377052 1.145259 0.388711 0.948342 -0.127500 0.203919 0.002574 37.700730 16.732959 -19.754996 17.216855 -7.591484 1.083523 21.368611 5.773047 0.419017 -28.755403 21.229968 -29.687905 -66.335720 -9.997345 -14.710498 73.105809 -49.524594 -61.477226 -54.902426 13.386896 10.350335 -63.190484 16.004020 10.637742 15.962591 -4.421747 8.797573 0.000007 -0.000002 12.499996 0.000007 -0.000002 12.499996 -0.000008 -0.000001 9.999999 0.000006 0.000003 5.000005 0.000007 -0.000002 12.499996 0.000007 -0.000002 12.499996 -0.000008 -0.000001 9.999999 0.000006 0.000003 5.000005 0.000007 -0.000002 12.499996 0.000007 -0.000002 12.499996 -0.000008 -0.000001 9.999999 0.000006 0.000003 5.000005 0.000007 -0.000002 12.499996 0.000007 -0.000002 12.499996 -0.000008 -0.000001 9.999999 0.000006 0.000003 5.000005 -175.083225 -0.002578 -179.939952 0.557676 1.547015 -20.091244 0.879359 -5.214380 -1.264231 62.444569 -25.763282 -8.808092 -89.433447 -15.076867 13.379165 10.516060 -12.987933 -6.172588 12.260124 -14.827830 -7.332935 5.504722 -23.639613 -12.152013 -0.000004 0.000015 19.545572 -0.000004 0.000015 19.545572 -0.000005 0.000008 15.636482 -0.000002 0.000000 7.818217 -0.000002 0.000018 29.635149 -0.000002 0.000018 29.635149 -0.000014 0.000008 23.708133 -0.000003 0.000004 11.854058 0.000003 0.000004 -12.500004 0.000003 0.000004 -12.500004 0.000003 -0.000003 -10.000007 -0.000007 0.000001 -5.000001 -0.000012 0.000015 16.172522 -0.000012 0.000015 16.172522 -0.000009 0.000012 12.938027 -0.000002 0.000015 6.469014 -54.902426 13.386896 10.350335 14.983201 -13.113842 -23.761878 0.000000 -2.287683 0.000000 8.885390 3.949556 6.890996 0.000000 -7.980531 0.000000 161.876220 -62.237500 168.439188 180.000000 68.223660 180.000000 -42.746792 -14.137625 -3.791850 0.000000 -17.484052 0.000000
42.501849 93.909314 -107.060938 -24.587476 18.400509 6.619761 5.921451 0.862480 3.720683 4.879853 0.560256 2.392294 1.144377 0.396073 0.947146 -0.122757 0.191377 0.000026 37.675588 16.740288 -19.781383 17.211504 -7.578537 1.096253 21.299606 5.677260 0.405462 -28.747322 21.428454 -29.774411 -66.447555 -9.837967 -14.697174 73.192331 -49.617207 -61.694487 -54.902426 13.386896 10.350335 -63.190484 16.004020 10.637742 15.962591 -4.421747 8.797573 0.000007 -0.000002 12.499996 0.000007 -0.000002 12.499996 -0.000008 -0.000001 9.999999 0.000006 0.000003 5.000005 0.000007 -0.000002 12.499996 0.000007 -0.000002 12.499996 -0.000008 -0.000001 9.999999 0.000006 0.000003 5.000005 0.000007 -0.000002 12.499996 0.000007 -0.000002 12.499996 -0.000008 -0.000001 9.999999 0.000006 0.000003 5.000005 0.000007 -0.000002 12.499996 0.000007 -0.000002 12.499996 -0.000008 -0.000001 9.999999 0.000006 0.000003 5.000005 -175.083225 -0.002578 -179.939952 0.533379 1.534612 -20.117628 0.874572 -5.238495 -1.320077 62.407705 -25.705289 -8.741451 -89.479479 -15.048609 13.457651 10.516060 -12.987933 -6.172588 12.260124 -14.827830 -7.332935 5.504722 -23.639613 -12.152013 -0.000004 0.000015 19.545572 -0.000004 0.000015 19.545572 -0.000005 0.000008 15.636482 -0.000002 0.000000 7.818217 -0.000002 0.000018 29.635149 -0.000002 0.000018 29.635149 -0.000014 0.000008 23.708133 -0.000003 0.000004 11.854058 0.000003 0.000004 -12.500004 0.000003 0.000004 -12.500004 0.000003 -0.000003 -10.000007 -0.000007 0.000001 -5.000001 -0.000012 0.000015 16.172522 -0.000012 0.000015 16.172522 -0.000009 0.000012 12.938027 -0.000002 0.000015 6.469014 -54.902426 13.386896 10.350335 14.905050 -13.069850 -23.761649 0.000000 -2.308858 0.000000 8.883116 4.039132 7.005412 0.000000 -7.916033 0.000000 161.718419 -62.208701 168.492507 180.000000 68.190131 180.000000 -42.739978 -14.117698 -3.819181 0.000000 -17.497805 0.000000
42.478192 93.909882 -107.007397 -24.428897 18.375102 6.644046 5.861405 0.874615 3.745065 4.840621 0.527601 2.415302 1.145131 0.404570 0.943024 -0.106344 0.176988 0.035725 37.622329 16.747601 -19.864204 17.201177 -7.565017 1.155403 21.287919 5.699406 0.355781 -28.861659 21.558743 -29.780870 -66.515284 -9.716983 -14.641250 73.286531 -49.695916 -61.943705 -54.902426 13.386896 10.350335 -63.190484 16.004020 10.637742 15.962591 -4.421747 8.797573 0.000007 -0.000002 12.499996 0.000007 -0.000002 12.499996 -0.000008 -0.000001 9.999999 0.000006 0.000003 5.000005 0.000007 -0.000002 12.499996 0.000007 -0.000002 12.499996 -0.000008 -0.000001 9.999999 0.000006 0.000003 5.000005 0.000007 -0.000002 12.499996 0.000007 -0.000002 12.499996 -0.000008 -0.000001 9.999999 0.000006 0.000003 5.000005 0.000007 -0.000002 12.499996 0.000007 -0.000002 12.499996 -0.000008 -0.000001 9.999999 0.000006 0.000003 5.000005 -175.083225 -0.002578 -179.939952 0.489290 1.502760 -20.158048 0.865375 -5.207785 -1.389306 62.423146 -25.733122 -8.710386 -89.517229 -15.035126 13.464687 10.516060 -12.987933 -6.172588 12.260124 -14.827830 -7.332935 5.504722 -23.639613 -12.152013 -0.000004 0.000015 19.545572 -0.000004 0.000015 19.545572 -0.000005 0.000008 15.636482 -0.000002 0.000000 7.818217 -0.000002 0.000018 29.635149 -0.000002 0.000018 29.635149 -0.000014 0.000008 23.708133 -0.000003 0.000004 11.854058 0.000003 0.000004 -12.500004 0.000003 0.000004 -12.500004 0.000003 -0.000003 -10.000007 -0.000007 0.000001 -5.000001 -0.000012 0.000015 16.172522 -0.000012 0.000015 16.172522 -0.000009 0.000012 12.938027 -0.000002 0.000015 6.469014 -54.902426 13.386896 10.350335 14.840960 -13.015469 -23.776857 0.000000 -2.329402 0.000000 8.857292 4.114546 7.208269 0.000000 -7.750865 0.000000 161.570666 -62.178558 168.493732 180.000000 68.144329 180.000000 -42.734191 -14.172977 -3.801872 0.000000 -17.417674 0.000000
